<svg xmlns="http://www.w3.org/2000/svg" width="383" height="285" viewBox="0 0 383 285">
<g>
<path d="M 351.50 266.10 C347.66,267.88 341.26,267.96 192.50,267.96 C44.69,267.96 37.31,267.87 33.50,266.13 C28.36,263.79 22.43,257.20 21.07,252.32 C19.67,247.28 19.59,43.02 20.99,38.00 C22.43,32.81 27.69,27.05 33.43,24.38 L 38.50 22.02 L 346.50 22.02 L 351.69 24.44 C358.05,27.40 362.47,33.12 363.97,40.34 C364.71,43.91 364.96,77.57 364.77,148.02 C364.52,244.28 364.39,250.74 362.70,254.50 C360.32,259.78 356.41,263.83 351.50,266.10 ZM 39.50 254.05 C40.60,254.50 109.36,254.90 192.30,254.94 C199.54,254.94 206.45,254.94 213.04,254.95 C339.15,255.01 347.10,255.01 349.26,251.48 C349.51,251.06 349.69,250.58 349.97,250.06 C350.66,248.77 351.00,213.67 351.00,144.52 L 351.00 40.91 L 348.55 38.45 L 346.09 36.00 L 310.30 35.98 C290.61,35.97 221.67,35.96 157.10,35.96 C148.40,35.96 140.32,35.96 132.82,35.96 C46.34,35.93 36.62,35.93 34.77,39.75 C34.38,40.56 34.34,41.55 33.99,42.75 C33.23,45.38 32.99,76.71 33.20,147.65 C33.50,247.17 33.53,248.83 35.50,251.01 C36.60,252.24 38.40,253.60 39.50,254.05 ZM 202.60 226.60 L 199.20 230.00 L 53.80 230.00 L 50.40 226.60 C47.18,223.38 47.00,222.82 47.00,216.24 C47.00,210.46 47.43,208.65 49.50,205.60 L 52.00 201.91 L 52.00 121.79 L 49.58 119.88 C45.21,116.45 43.74,110.47 44.14,97.77 C44.54,85.17 45.58,82.45 51.30,78.96 C53.97,77.33 56.36,77.01 65.75,77.00 L 77.00 77.00 L 77.00 71.68 C77.00,63.80 81.10,56.22 87.00,53.18 C96.03,48.53 104.54,51.73 118.42,65.02 L 126.50 72.75 L 133.89 65.37 C146.91,52.36 156.98,48.53 166.00,53.18 C171.88,56.21 175.06,61.89 175.76,70.59 L 176.27 77.00 L 187.39 77.00 C204.86,77.01 208.10,80.11 208.80,97.51 C209.29,109.43 207.95,115.31 203.91,119.08 L 201.00 121.80 L 201.00 201.91 L 203.50 205.60 C205.57,208.65 206.00,210.46 206.00,216.24 C206.00,222.82 205.82,223.38 202.60,226.60 ZM 65.00 123.00 L 65.00 201.00 L 110.00 201.00 L 110.00 123.00 ZM 143.00 122.96 L 143.00 201.00 L 188.02 201.00 L 187.76 162.25 L 187.50 123.50 L 165.25 123.23 ZM 233.46 102.04 C230.77,104.56 226.55,104.55 224.00,102.00 C221.47,99.47 221.45,95.97 223.94,92.80 C225.77,90.48 225.79,90.07 224.34,85.92 C219.83,72.99 227.01,57.98 239.91,53.37 C244.80,51.62 253.30,51.68 257.63,53.49 C260.95,54.88 261.38,54.84 263.74,52.99 C270.96,47.31 279.20,55.91 272.92,62.58 C270.96,64.67 270.93,64.97 272.42,67.85 C274.60,72.07 274.45,82.41 272.13,87.50 C269.54,93.18 265.40,97.75 260.65,100.18 C255.16,102.98 245.78,103.65 240.02,101.64 C235.78,100.16 235.44,100.18 233.46,102.04 ZM 233.52 169.98 C232.34,171.09 230.01,172.00 228.34,172.00 C222.53,172.00 220.06,165.73 223.94,160.80 C225.72,158.55 225.76,158.00 224.48,154.42 C221.60,146.33 223.20,136.54 228.56,129.51 C230.01,127.61 233.91,124.70 237.26,123.03 C244.16,119.58 250.22,119.11 256.98,121.49 C260.94,122.89 261.37,122.86 263.74,120.99 C270.91,115.35 279.21,123.89 272.98,130.52 C271.09,132.53 271.06,132.89 272.48,136.30 C276.03,144.78 273.17,157.84 266.38,164.19 C259.64,170.50 247.43,172.88 239.30,169.48 C235.89,168.06 235.53,168.09 233.52,169.98 ZM 298.26 102.01 C291.09,107.65 282.79,99.11 289.02,92.48 C290.91,90.47 290.94,90.11 289.52,86.70 C285.97,78.22 288.83,65.16 295.62,58.81 C302.35,52.52 313.08,50.35 321.98,53.49 C325.94,54.89 326.37,54.86 328.74,52.99 C335.82,47.42 343.62,55.13 338.06,62.20 C336.28,64.45 336.24,65.00 337.52,68.58 C341.70,80.31 335.86,94.89 324.65,100.68 C319.99,103.09 309.35,103.59 304.64,101.62 C300.99,100.10 300.67,100.12 298.26,102.01 ZM 259.51 236.90 C253.53,240.06 243.00,239.83 237.00,236.41 C230.56,232.75 228.05,230.18 225.38,224.50 C219.50,212.04 224.70,197.30 237.18,191.07 C245.48,186.92 251.50,186.91 259.74,191.03 C269.21,195.76 274.01,203.40 273.99,213.72 C273.97,223.70 268.78,232.01 259.51,236.90 ZM 324.81 168.41 C320.92,170.35 318.08,171.00 313.55,170.99 C298.82,170.97 288.08,160.18 288.02,145.36 C287.96,128.33 305.18,115.73 321.10,121.16 C342.84,128.57 345.17,158.26 324.81,168.41 ZM 324.93 236.53 C319.33,239.37 308.72,239.89 303.42,237.58 C294.34,233.63 288.01,223.73 288.03,213.50 C288.05,206.05 290.44,200.52 295.95,195.16 C308.59,182.90 328.92,187.07 336.63,203.50 C342.29,215.55 337.03,230.41 324.93,236.53 ZM 58.00 90.00 L 58.00 110.00 L 110.00 110.00 L 110.00 90.00 ZM 143.00 90.00 L 143.00 110.00 L 195.00 110.00 L 195.00 90.00 ZM 124.00 123.00 L 124.00 217.00 L 129.00 217.00 L 129.00 123.00 ZM 308.27 156.57 C314.88,159.54 322.51,156.27 324.78,149.50 C327.90,140.16 318.85,131.10 309.53,134.22 C299.23,137.66 298.41,152.14 308.27,156.57 ZM 241.93 223.73 C247.83,227.70 255.22,225.96 259.04,219.70 C261.38,215.87 261.51,212.89 259.52,209.04 C257.12,204.39 253.29,202.00 248.27,202.00 C244.54,202.00 243.25,202.55 240.46,205.34 C238.62,207.18 236.81,209.90 236.44,211.38 C235.45,215.32 238.02,221.10 241.93,223.73 ZM 307.30 224.04 C311.54,226.62 315.94,226.51 320.10,223.71 C329.62,217.31 325.17,202.00 313.79,202.00 C300.94,202.00 296.41,217.40 307.30,224.04 ZM 142.00 76.21 C142.00,76.65 146.73,77.00 152.50,77.00 L 152.67 77.00 C159.03,77.00 161.90,77.00 162.81,75.66 C163.56,74.57 163.01,72.58 162.01,68.97 L 161.97 68.85 C160.71,64.31 159.11,63.65 154.76,65.87 C150.85,67.86 142.00,75.04 142.00,76.21 ZM 90.01 74.75 C90.00,76.94 90.27,77.00 100.69,77.00 L 111.37 77.00 L 108.44 73.87 C103.65,68.77 97.89,65.00 94.90,65.00 C92.51,65.00 91.94,65.56 91.05,68.75 C90.48,70.81 90.01,73.51 90.01,74.75 ZM 124.00 90.00 L 124.00 110.00 L 129.00 110.00 L 129.00 90.00 ZM 60.00 216.11 C60.00,216.61 70.96,217.00 85.00,217.00 C100.33,217.00 110.00,216.63 110.00,216.04 C110.00,215.46 101.48,214.96 88.75,214.79 C65.64,214.47 60.00,214.73 60.00,216.11 ZM 143.00 216.07 C143.00,216.62 153.23,217.00 168.00,217.00 C183.14,217.00 193.00,216.62 193.00,216.05 C193.00,215.50 186.52,214.97 177.75,214.80 C157.41,214.40 143.00,214.93 143.00,216.07 ZM 247.00 157.22 C247.00,158.52 250.92,158.10 254.09,156.45 C255.74,155.60 257.97,153.46 259.04,151.70 C260.96,148.55 261.69,144.00 260.28,144.00 C259.29,144.00 247.00,156.24 247.00,157.22 ZM 301.00 76.65 C301.00,77.94 301.35,79.00 301.78,79.00 C303.22,79.00 315.40,66.06 314.65,65.32 C314.25,64.92 312.04,65.24 309.74,66.04 C305.16,67.64 301.00,72.68 301.00,76.65 ZM 236.39 75.75 C236.04,77.54 236.16,79.00 236.65,79.00 C238.18,79.00 250.44,66.10 249.65,65.32 C248.40,64.07 240.78,67.37 238.85,70.00 C237.85,71.38 236.74,73.96 236.39,75.75 ZM 247.00 89.35 C247.00,90.72 253.18,89.21 256.00,87.15 C258.63,85.22 261.93,77.60 260.68,76.35 C259.90,75.56 247.00,87.82 247.00,89.35 ZM 236.00 146.19 C236.00,148.08 237.13,147.33 243.04,141.47 C249.57,135.01 249.90,134.48 247.61,134.19 C241.93,133.48 236.00,139.61 236.00,146.19 ZM 312.00 89.35 C312.00,91.07 318.44,88.95 321.19,86.32 C324.00,83.63 326.71,77.38 325.57,76.24 C324.86,75.53 312.00,87.95 312.00,89.35 Z" fill="rgb(40,38,46)"/>
</g>
</svg>
